ffmpeg started on 2016-11-30 at 02:46:30
Report written to "Output/x264/results/ffmpeg/old_town_cross_2160p50faster2500k.log"
Command line:
Tools/ffmpeg/ffmpeg -benchmark -y -i Input/y4m/old_town_cross_2160p50.y4m -c:v libx264 -preset faster -b:v 2500k -an Output/x264/encoded/old_town_cross_2160p50faster2500k.mkv
ffmpeg version N-82227-gdb23fde Copyright (c) 2000-2016 the FFmpeg developers
  built with gcc 5.4.0 (Ubuntu 5.4.0-6ubuntu1~16.04.2) 20160609
  configuration: --prefix=/home/jaroslav/ffmpeg_build --pkg-config-flags=--static --extra-cflags=-I/home/jaroslav/ffmpeg_build/include --extra-ldflags=-L/home/jaroslav/ffmpeg_build/lib --bindir=/home/jaroslav/bin --enable-gpl --enable-libass --enable-libfdk-aac --enable-libfreetype --enable-libmp3lame --enable-libopus --enable-libtheora --enable-libvorbis --enable-libvpx --enable-libx264 --enable-libx265 --enable-nvenc --enable-libmfx --enable-libxvid --enable-libgsm --enable-libopencore-amrnb --enable-version3 --enable-nonfree
  libavutil      55. 35.100 / 55. 35.100
  libavcodec     57. 66.101 / 57. 66.101
  libavformat    57. 57.100 / 57. 57.100
  libavdevice    57.  2.100 / 57.  2.100
  libavfilter     6. 66.100 /  6. 66.100
  libswscale      4.  3.100 /  4.  3.100
  libswresample   2.  4.100 /  2.  4.100
  libpostproc    54.  2.100 / 54.  2.100
Input #0, yuv4mpegpipe, from 'Input/y4m/old_town_cross_2160p50.y4m':
  Duration: 00:00:10.00, start: 0.000000, bitrate: 4976642 kb/s
    Stream #0:0: Video: rawvideo (I420 / 0x30323449), yuv420p(progressive), 3840x2160, SAR 1:1 DAR 16:9, 50 fps, 50 tbr, 50 tbn, 50 tbc
[libx264 @ 0x364a120] using SAR=1/1
[libx264 @ 0x364a120] using cpu capabilities: MMX2 SSE2Fast SSSE3 SSE4.2 AVX FMA3 AVX2 LZCNT BMI2
[libx264 @ 0x364a120] profile High, level 5.2
[libx264 @ 0x364a120] 264 - core 148 - H.264/MPEG-4 AVC codec - Copyleft 2003-2016 - http://www.videolan.org/x264.html - options: cabac=1 ref=2 deblock=1:0:0 analyse=0x3:0x113 me=hex subme=4 psy=1 psy_rd=1.00:0.00 mixed_ref=0 me_range=16 chroma_me=1 trellis=1 8x8dct=1 cqm=0 deadzone=21,11 fast_pskip=1 chroma_qp_offset=0 threads=6 lookahead_threads=1 sliced_threads=0 nr=0 decimate=1 interlaced=0 bluray_compat=0 constrained_intra=0 bframes=3 b_pyramid=2 b_adapt=1 b_bias=0 direct=1 weightb=1 open_gop=0 weightp=1 keyint=250 keyint_min=25 scenecut=40 intra_refresh=0 rc_lookahead=20 rc=abr mbtree=1 bitrate=2500 ratetol=1.0 qcomp=0.60 qpmin=0 qpmax=69 qpstep=4 ip_ratio=1.40 aq=1:1.00
Output #0, matroska, to 'Output/x264/encoded/old_town_cross_2160p50faster2500k.mkv':
  Metadata:
    encoder         : Lavf57.57.100
    Stream #0:0: Video: h264 (libx264) (H264 / 0x34363248), yuv420p, 3840x2160 [SAR 1:1 DAR 16:9], q=-1--1, 2500 kb/s, 50 fps, 1k tbn, 50 tbc
    Metadata:
      encoder         : Lavc57.66.101 libx264
    Side data:
      cpb: bitrate max/min/avg: 0/0/2500000 buffer size: 0 vbv_delay: -1
Stream mapping:
  Stream #0:0 -> #0:0 (rawvideo (native) -> h264 (libx264))
Press [q] to stop, [?] for help
frame=   27 fps= 21 q=0.0 size=       0kB time=00:00:00.00 bitrate=N/A speed=   0x    frame=   36 fps= 20 q=50.0 size=       1kB time=00:00:00.06 bitrate=  96.1kbits/s speed=0.034x    frame=   47 fps= 20 q=47.0 size=       1kB time=00:00:00.28 bitrate=  20.9kbits/s speed=0.123x    frame=   56 fps= 19 q=46.0 size=       1kB time=00:00:00.46 bitrate=  12.7kbits/s speed=0.155x    frame=   67 fps= 19 q=45.0 size=       1kB time=00:00:00.68 bitrate=   8.6kbits/s speed=0.196x    frame=   76 fps= 18 q=45.0 size=       1kB time=00:00:00.86 bitrate=   6.8kbits/s speed=0.206x    frame=   88 fps= 18 q=45.0 size=       1kB time=00:00:01.10 bitrate=   5.3kbits/s speed=0.225x    frame=  100 fps= 18 q=44.0 size=       1kB time=00:00:01.34 bitrate=   4.4kbits/s speed=0.24x    frame=  112 fps= 18 q=44.0 size=       1kB time=00:00:01.58 bitrate=   3.7kbits/s speed=0.251x    frame=  124 fps= 18 q=44.0 size=       1kB time=00:00:01.82 bitrate=   3.2kbits/s speed=0.26x    frame=  136 fps= 18 q=44.0 size=       1kB time=00:00:02.06 bitrate=   2.8kbits/s speed=0.267x    frame=  148 fps= 18 q=44.0 size=       1kB time=00:00:02.30 bitrate=   2.5kbits/s speed=0.273x    frame=  160 fps= 17 q=44.0 size=       1kB time=00:00:02.54 bitrate=   2.3kbits/s speed=0.278x    frame=  172 fps= 17 q=44.0 size=       1kB time=00:00:02.78 bitrate=   2.1kbits/s speed=0.282x    frame=  184 fps= 17 q=44.0 size=       1kB time=00:00:03.02 bitrate=   1.9kbits/s speed=0.286x    frame=  196 fps= 17 q=44.0 size=       1kB time=00:00:03.26 bitrate=   1.8kbits/s speed=0.289x    frame=  207 fps= 18 q=44.0 size=       1kB time=00:00:03.48 bitrate=   1.7kbits/s speed=0.295x    frame=  216 fps= 17 q=44.0 size=       1kB time=00:00:03.66 bitrate=   1.6kbits/s speed=0.294x    frame=  227 fps= 17 q=44.0 size=       1kB time=00:00:03.88 bitrate=   1.5kbits/s speed=0.299x    frame=  236 fps= 17 q=44.0 size=       1kB time=00:00:04.06 bitrate=   1.4kbits/s speed=0.297x    frame=  242 fps= 17 q=44.0 size=       1kB time=00:00:04.18 bitrate=   1.4kbits/s speed=0.288x    frame=  245 fps= 16 q=44.0 size=       1kB time=00:00:04.24 bitrate=   1.4kbits/s speed=0.277x    frame=  250 fps= 16 q=44.0 size=       1kB time=00:00:04.34 bitrate=   1.4kbits/s speed=0.274x    frame=  255 fps= 16 q=44.0 size=       1kB time=00:00:04.44 bitrate=   1.3kbits/s speed=0.27x    frame=  260 fps= 15 q=44.0 size=       1kB time=00:00:04.54 bitrate=   1.3kbits/s speed=0.267x    frame=  265 fps= 15 q=44.0 size=       1kB time=00:00:04.64 bitrate=   1.3kbits/s speed=0.264x    frame=  270 fps= 15 q=44.0 size=       1kB time=00:00:04.74 bitrate=   1.2kbits/s speed=0.261x    frame=  275 fps= 15 q=41.0 size=       1kB time=00:00:04.84 bitrate=   1.2kbits/s speed=0.257x    frame=  285 fps= 15 q=44.0 size=    1423kB time=00:00:05.04 bitrate=2312.3kbits/s speed=0.26x    frame=  296 fps= 15 q=44.0 size=    1423kB time=00:00:05.26 bitrate=2215.6kbits/s speed=0.265x    frame=  305 fps= 15 q=44.0 size=    1423kB time=00:00:05.44 bitrate=2142.3kbits/s speed=0.264x    frame=  315 fps= 15 q=44.0 size=    1423kB time=00:00:05.64 bitrate=2066.3kbits/s speed=0.268x    frame=  325 fps= 15 q=44.0 size=    1423kB time=00:00:05.84 bitrate=1995.6kbits/s speed=0.268x    frame=  336 fps= 15 q=44.0 size=    1423kB time=00:00:06.06 bitrate=1923.1kbits/s speed=0.272x    frame=  345 fps= 15 q=44.0 size=    1423kB time=00:00:06.24 bitrate=1867.7kbits/s speed=0.272x    frame=  357 fps= 15 q=44.0 size=    1423kB time=00:00:06.48 bitrate=1798.5kbits/s speed=0.274x    frame=  368 fps= 15 q=44.0 size=    1423kB time=00:00:06.70 bitrate=1739.5kbits/s speed=0.277x    frame=  377 fps= 15 q=44.0 size=    1423kB time=00:00:06.88 bitrate=1694.0kbits/s speed=0.277x    frame=  388 fps= 15 q=44.0 size=    1423kB time=00:00:07.10 bitrate=1641.5kbits/s speed=0.28x    frame=  397 fps= 15 q=44.0 size=    1423kB time=00:00:07.28 bitrate=1600.9kbits/s speed=0.279x    frame=  409 fps= 15 q=44.0 size=    1423kB time=00:00:07.52 bitrate=1549.8kbits/s speed=0.281x    frame=  420 fps= 15 q=44.0 size=    1423kB time=00:00:07.74 bitrate=1505.8kbits/s speed=0.284x    frame=  429 fps= 15 q=44.0 size=    1423kB time=00:00:07.92 bitrate=1471.5kbits/s speed=0.283x    frame=  441 fps= 15 q=44.0 size=    1423kB time=00:00:08.16 bitrate=1428.3kbits/s speed=0.284x    frame=  452 fps= 15 q=45.0 size=    1423kB time=00:00:08.38 bitrate=1390.8kbits/s speed=0.287x    frame=  461 fps= 15 q=45.0 size=    1423kB time=00:00:08.56 bitrate=1361.5kbits/s speed=0.286x    frame=  471 fps= 15 q=45.0 size=    1423kB time=00:00:08.76 bitrate=1330.5kbits/s speed=0.288x    frame=  481 fps= 15 q=45.0 size=    1423kB time=00:00:08.96 bitrate=1300.8kbits/s speed=0.288x    frame=  483 fps= 15 q=45.0 size=    1423kB time=00:00:09.00 bitrate=1295.0kbits/s speed=0.284x    frame=  486 fps= 15 q=45.0 size=    1423kB time=00:00:09.06 bitrate=1286.4kbits/s speed=0.279x    frame=  491 fps= 15 q=45.0 size=    1423kB time=00:00:09.16 bitrate=1272.4kbits/s speed=0.277x    frame=  496 fps= 15 q=45.0 size=    1423kB time=00:00:09.26 bitrate=1258.6kbits/s speed=0.275x    frame=  500 fps= 15 q=45.0 size=    1423kB time=00:00:09.34 bitrate=1247.8kbits/s speed=0.273x    frame=  500 fps= 14 q=-1.0 Lsize=    3148kB time=00:00:09.94 bitrate=2593.9kbits/s speed=0.282x    
video:3143kB audio:0kB subtitle:0kB other streams:0kB global headers:0kB muxing overhead: 0.135545%
bench: utime=89.632s
bench: maxrss=1342876kB
[libx264 @ 0x364a120] frame I:3     Avg QP:40.65  size: 66646
[libx264 @ 0x364a120] frame P:183   Avg QP:42.42  size:  8437
[libx264 @ 0x364a120] frame B:314   Avg QP:44.54  size:  4695
[libx264 @ 0x364a120] consecutive B-frames: 16.0%  0.8%  0.0% 83.2%
[libx264 @ 0x364a120] mb I  I16..4: 53.2% 46.5%  0.3%
[libx264 @ 0x364a120] mb P  I16..4:  1.9%  1.4%  0.0%  P16..4:  9.2%  0.5%  0.0%  0.0%  0.0%    skip:86.9%
[libx264 @ 0x364a120] mb B  I16..4:  0.2%  0.0%  0.0%  B16..8:  7.9%  0.1%  0.0%  direct: 2.3%  skip:89.5%  L0:31.3% L1:68.6% BI: 0.1%
[libx264 @ 0x364a120] final ratefactor: 36.73
[libx264 @ 0x364a120] 8x8 transform intra:42.1% inter:93.7%
[libx264 @ 0x364a120] coded y,uvDC,uvAC intra: 13.3% 18.6% 1.6% inter: 0.6% 0.8% 0.0%
[libx264 @ 0x364a120] i16 v,h,dc,p: 47% 42%  7%  4%
[libx264 @ 0x364a120] i8 v,h,dc,ddl,ddr,vr,hd,vl,hu: 13% 25% 42%  2%  3%  3%  6%  2%  4%
[libx264 @ 0x364a120] i4 v,h,dc,ddl,ddr,vr,hd,vl,hu: 19% 34% 13%  6%  6%  6%  7%  4%  5%
[libx264 @ 0x364a120] i8c dc,h,v,p: 88%  6%  6%  0%
[libx264 @ 0x364a120] Weighted P-Frames: Y:0.5% UV:0.0%
[libx264 @ 0x364a120] ref P L0: 80.8% 19.2%
[libx264 @ 0x364a120] ref B L0: 91.5%  8.5%
[libx264 @ 0x364a120] ref B L1: 96.7%  3.3%
[libx264 @ 0x364a120] kb/s:2574.53
